<?xml version="1.0" encoding="UTF-8"?>
<svg id="Layer_1" data-name="Layer 1" xmlns="http://www.w3.org/2000/svg" xmlns:xlink="http://www.w3.org/1999/xlink" viewBox="0 0 3015 515.03">
  <defs>
    <style>
      .cls-1 {
        fill: url(#Degradado_sin_nombre_6-2);
      }

      .cls-2 {
        fill: url(#Degradado_sin_nombre_6);
      }

      .cls-3 {
        fill: url(#Degradado_sin_nombre_6-7);
      }

      .cls-4 {
        fill: url(#Degradado_sin_nombre_6-9);
      }

      .cls-5 {
        fill: url(#Degradado_sin_nombre_6-6);
      }

      .cls-6 {
        fill: url(#Degradado_sin_nombre_6-3);
      }

      .cls-7 {
        fill: #b3b3b3;
      }

      .cls-8 {
        fill: url(#Degradado_sin_nombre_6-4);
      }

      .cls-9 {
        fill: url(#Degradado_sin_nombre_6-5);
      }

      .cls-10 {
        fill: url(#Degradado_sin_nombre_6-8);
      }
    </style>
    <linearGradient id="Degradado_sin_nombre_6" data-name="Degradado sin nombre 6" x1="85.89" y1="-2.81" x2="805.75" y2="1093.49" gradientUnits="userSpaceOnUse">
      <stop offset="0" stop-color="#662d91"/>
      <stop offset="1" stop-color="#29abe2"/>
    </linearGradient>
    <linearGradient id="Degradado_sin_nombre_6-2" data-name="Degradado sin nombre 6" x1="85.89" y1="-2.82" x2="805.75" y2="1093.49" xlink:href="#Degradado_sin_nombre_6"/>
    <linearGradient id="Degradado_sin_nombre_6-3" data-name="Degradado sin nombre 6" x1="85.89" y1="-2.81" x2="805.75" y2="1093.49" xlink:href="#Degradado_sin_nombre_6"/>
    <linearGradient id="Degradado_sin_nombre_6-4" data-name="Degradado sin nombre 6" x1="114.19" y1="-21.4" x2="834.05" y2="1074.9" xlink:href="#Degradado_sin_nombre_6"/>
    <linearGradient id="Degradado_sin_nombre_6-5" data-name="Degradado sin nombre 6" x1="216.64" y1="-88.67" x2="936.5" y2="1007.63" xlink:href="#Degradado_sin_nombre_6"/>
    <linearGradient id="Degradado_sin_nombre_6-6" data-name="Degradado sin nombre 6" x1="170.67" y1="-58.48" x2="890.53" y2="1037.82" xlink:href="#Degradado_sin_nombre_6"/>
    <linearGradient id="Degradado_sin_nombre_6-7" data-name="Degradado sin nombre 6" x1="74.98" y1="4.35" x2="794.84" y2="1100.65" xlink:href="#Degradado_sin_nombre_6"/>
    <linearGradient id="Degradado_sin_nombre_6-8" data-name="Degradado sin nombre 6" x1="-33.9" y1="75.85" x2="685.96" y2="1172.15" xlink:href="#Degradado_sin_nombre_6"/>
    <linearGradient id="Degradado_sin_nombre_6-9" data-name="Degradado sin nombre 6" x1="5.82" y1="49.76" x2="725.68" y2="1146.06" xlink:href="#Degradado_sin_nombre_6"/>
  </defs>
  <g>
    <path class="cls-2" d="m255.52,511.03C114.62,511.03,0,396.41,0,255.52S114.62,0,255.52,0s255.52,114.62,255.52,255.52-114.62,255.52-255.52,255.52Zm0-473.64c-120.27,0-218.12,97.85-218.12,218.12s97.85,218.12,218.12,218.12,218.12-97.85,218.12-218.12S375.79,37.39,255.52,37.39Z"/>
    <g>
      <path class="cls-1" d="m252.4,301.22c0-20.65,16.74-37.39,37.39-37.39,9.68,0,18.41,3.77,25.05,9.81,1.76-5.77,2.99-11.77,2.99-18.12,0-34.42-27.9-62.32-62.32-62.32s-62.32,27.9-62.32,62.32,27.9,62.32,62.32,62.32c.31,0,.59-.09.89-.09-2.48-5-4.01-10.56-4.01-16.53Z"/>
      <path class="cls-6" d="m255.52,319.39c-35.23,0-63.88-28.65-63.88-63.88s28.65-63.88,63.88-63.88,63.88,28.65,63.88,63.88c0,5.84-.97,11.75-3.06,18.57-.16.51-.57.91-1.08,1.05-.52.15-1.06.01-1.46-.35-6.67-6.06-15.19-9.4-24-9.4-19.76,0-35.83,16.07-35.83,35.83,0,5.36,1.3,10.69,3.85,15.84.24.48.21,1.05-.06,1.5-.28.46-.77.74-1.3.75-.46.06-.69.09-.93.09Zm0-124.64c-33.5,0-60.76,27.26-60.76,60.76s26.44,59.94,59.25,60.74c-2.1-4.91-3.16-9.95-3.16-15.04,0-21.48,17.47-38.95,38.95-38.95,8.78,0,17.3,3.04,24.23,8.61,1.53-5.56,2.26-10.49,2.26-15.36,0-33.5-27.26-60.76-60.76-60.76Z"/>
    </g>
    <path class="cls-8" d="m301.54,126.44l-30.78-58.58c-.99-1.89-2.87-3.14-5-3.32-3.33-.27-81.91-5.95-147.57,60.41-1.77,1.78-2.29,4.46-1.32,6.78.97,2.32,3.24,3.83,5.75,3.83h173.4c2.18,0,4.21-1.14,5.33-3.01,1.13-1.87,1.2-4.19.18-6.12Z"/>
    <path class="cls-9" d="m427.43,159.59c-40.4-75.55-124.24-90.23-127.79-90.82-2.37-.37-4.72.6-6.1,2.54-1.38,1.95-1.52,4.52-.37,6.61l81.21,147.54c1.03,1.88,2.97,3.1,5.12,3.21.12,0,.23.01.34.01,2.02,0,3.93-.99,5.1-2.65l42.11-59.93c1.35-1.93,1.5-4.45.4-6.52Z"/>
    <path class="cls-5" d="m442.41,197.9c-.78-2.18-2.7-3.74-4.99-4.07-2.28-.36-4.58.65-5.93,2.52l-100.76,139.4c-1.37,1.89-1.56,4.39-.51,6.48,1.06,2.08,3.2,3.4,5.53,3.41l88.64.36h.02c2.25,0,4.33-1.22,5.43-3.18,38.88-69.38,13.64-141.86,12.55-144.91Z"/>
    <path class="cls-3" d="m413.9,366.07c-1.08-2.05-3.2-3.34-5.51-3.35l-174.03-.49h-.02c-2.13,0-4.11,1.08-5.25,2.88-1.15,1.8-1.3,4.06-.4,5.99l35.37,75.59c1.03,2.2,3.24,3.59,5.65,3.59.13,0,.25,0,.38-.01,92.52-5.65,141.38-74.83,143.41-77.78,1.32-1.9,1.47-4.38.4-6.43Z"/>
    <path class="cls-10" d="m239.61,441.7l-88.78-172.53c-1.04-2.01-3.09-3.3-5.36-3.38-2.43.01-4.39,1.11-5.55,3.06l-47.71,80.54c-1.17,1.98-1.16,4.44.04,6.41,50.71,83.57,137.43,94.52,141.1,94.95.24.03.48.04.72.04,2.03,0,3.95-.99,5.12-2.68,1.31-1.89,1.47-4.35.42-6.4Z"/>
    <path class="cls-4" d="m184.3,159.81c-1.09-2.01-3.2-3.27-5.48-3.27h-81.24c-2.17,0-4.18,1.13-5.31,2.98-49.68,81.01-19.13,153.39-17.8,156.43.91,2.1,2.91,3.53,5.19,3.72.18.02.35.02.52.02,2.09,0,4.06-1.05,5.22-2.82l98.64-150.68c1.25-1.92,1.36-4.36.27-6.38Z"/>
  </g>
  <g>
    <path class="cls-7" d="m782.71,9.4c-1.39-3.24-4.81-5.34-8.7-5.34s-7.31,2.09-8.69,5.3l-170.76,388.63-5.75,13.41h21.24l1.97-5.9L774,37.14l161.99,368.36,1.97,5.9h21.24l-5.76-13.44L782.71,9.4Z"/>
    <path class="cls-7" d="m1233.69,243.43c0-67.3-51.85-122.05-115.57-122.05-39.34,0-75.13,20.6-96.39,54.63v-54.63h-19.18v290.02h19.18v-167.97c0-56.72,43.24-102.86,96.39-102.86s96.39,46.14,96.39,102.88l.59,158.97.94,9.58h18.59l-.94-10.35v-158.21Z"/>
    <path class="cls-7" d="m1493.95,127.28l-96.68,248.44-97.73-248.27-2.02-6.07h-21.24l5.71,13.3,105.06,267.01c-31.07,73.87-51.92,94.15-96.32,94.15h-9.59v19.18h9.59c52.46,0,79.04-24.28,112.84-103.63h.52l1.96-5.89,105.35-270.72,5.75-13.41h-21.24l-1.96,5.89Z"/>
    <path class="cls-7" d="m1953.93,4.23c-4.49-.95-8.9,1.15-10.66,5.1l-167.38,369.39L1607.94,9.36c-1.77-3.98-6.16-6.08-10.67-5.13-4.55.97-7.6,4.58-7.6,8.99v398.19h19.18V57.4l158.34,348.23c1.39,3.24,4.81,5.34,8.7,5.34s7.31-2.1,8.67-5.27l157.81-348.31.56,344.42v9.59h19.18l-.59-398.19c0-4.41-3.06-8.02-7.6-8.99Z"/>
    <path class="cls-7" d="m2175.25,121.38c-73.47,0-133.24,65.05-133.24,145.01s59.77,145.01,133.24,145.01,133.24-65.05,133.24-145.01-59.77-145.01-133.24-145.01Zm0,270.84c-62.89,0-114.05-56.45-114.05-125.83s51.17-125.83,114.05-125.83,114.05,56.44,114.05,125.83-51.16,125.83-114.05,125.83Z"/>
    <polygon class="cls-7" points="2572.72 127.33 2470.2 376.8 2366.53 127.32 2364.55 121.38 2343.31 121.38 2349.05 134.77 2461.45 405.46 2463.43 411.4 2477.01 411.4 2478.99 405.46 2590.2 134.79 2595.95 121.38 2574.71 121.38 2572.72 127.33"/>
    <rect class="cls-7" x="2660.22" y="56.03" width="19.77" height="19.18"/>
    <rect class="cls-7" x="2660.22" y="121.38" width="19.18" height="290.02"/>
    <path class="cls-7" d="m3015,266.39c0-79.96-59.77-145.01-133.23-145.01-35.84,0-69.38,15.01-94.43,42.27-25.02,27.23-38.81,63.72-38.81,102.75s13.78,75.52,38.81,102.75c25.05,27.25,58.59,42.26,94.39,42.26.56,0,1.12,0,1.69,0,47.85,0,86.33-19.73,114.4-58.66l2.13-2.95-15.31-11.47-2.22,2.98c-25.47,34.25-57.87,50.91-99.05,50.91-.53,0-1.07,0-1.6,0-60.05,0-109.35-50.75-113.73-116.23h246.97v-9.59Zm-246.97-9.59c4.39-65.48,53.69-116.23,113.73-116.23s112.06,52.85,114,116.23h-227.73Z"/>
  </g>
</svg>